<?xml version="1.0" standalone="no"?>
<svg xmlns:xlink="http://www.w3.org/1999/xlink" id="wave" style="transform:rotate(180deg); transition: 0.3s" viewBox="0 0 1440 100" version="1.1" xmlns="http://www.w3.org/2000/svg"><defs><linearGradient id="sw-gradient-0" x1="0" x2="0" y1="1" y2="0"><stop stop-color="rgba(255, 249, 234, 1)" offset="0%"/><stop stop-color="rgba(255, 249, 234, 1)" offset="100%"/></linearGradient></defs><path style="transform:translate(0, 0px); opacity:1" fill="url(#sw-gradient-0)" d="M0,30L60,38.3C120,47,240,63,360,61.7C480,60,600,40,720,41.7C840,43,960,67,1080,63.3C1200,60,1320,30,1440,23.3C1560,17,1680,33,1800,48.3C1920,63,2040,77,2160,83.3C2280,90,2400,90,2520,78.3C2640,67,2760,43,2880,28.3C3000,13,3120,7,3240,8.3C3360,10,3480,20,3600,21.7C3720,23,3840,17,3960,21.7C4080,27,4200,43,4320,48.3C4440,53,4560,47,4680,43.3C4800,40,4920,40,5040,45C5160,50,5280,60,5400,66.7C5520,73,5640,77,5760,75C5880,73,6000,67,6120,63.3C6240,60,6360,60,6480,65C6600,70,6720,80,6840,85C6960,90,7080,90,7200,86.7C7320,83,7440,77,7560,73.3C7680,70,7800,70,7920,68.3C8040,67,8160,63,8280,55C8400,47,8520,33,8580,26.7L8640,20L8640,100L8580,100C8520,100,8400,100,8280,100C8160,100,8040,100,7920,100C7800,100,7680,100,7560,100C7440,100,7320,100,7200,100C7080,100,6960,100,6840,100C6720,100,6600,100,6480,100C6360,100,6240,100,6120,100C6000,100,5880,100,5760,100C5640,100,5520,100,5400,100C5280,100,5160,100,5040,100C4920,100,4800,100,4680,100C4560,100,4440,100,4320,100C4200,100,4080,100,3960,100C3840,100,3720,100,3600,100C3480,100,3360,100,3240,100C3120,100,3000,100,2880,100C2760,100,2640,100,2520,100C2400,100,2280,100,2160,100C2040,100,1920,100,1800,100C1680,100,1560,100,1440,100C1320,100,1200,100,1080,100C960,100,840,100,720,100C600,100,480,100,360,100C240,100,120,100,60,100L0,100Z"/></svg>